Coordinates
version=1
nRows=21
nColumns=12
inDegrees=yes

Units are S.I. units (second, meters, Newtons, ...)
Angles are in degrees

endheader
time	SC_y	SC_z	SC_x	AC_y	AC_z	AC_x	GH_y	GH_z	GH_yy	EL_x	PS_y
       0.0              -15.73          5.008          51.12          66.27          2.926         -4.914          57.96          -6.39          146.4          107.8          41.23
  0.004238              -15.73          5.012          51.12          66.26          2.926         -4.915          57.93         -6.385          146.4          107.8          41.23
  0.008476              -15.73          5.017          51.12          66.26          2.926         -4.917          57.89         -6.379          146.3          107.8          41.24
   0.01271              -15.73          5.022          51.12          66.25          2.926         -4.919          57.85         -6.373          146.3          107.8          41.25
   0.01695              -15.73          5.027          51.12          66.25          2.926         -4.921          57.81         -6.367          146.2          107.8          41.26
   0.02119              -15.73          5.032          51.11          66.24          2.926         -4.923          57.77          -6.36          146.2          107.8          41.27
   0.02543              -15.73          5.038          51.11          66.24          2.926         -4.925          57.72         -6.353          146.1          107.8          41.28
   0.02967              -15.73          5.044          51.11          66.23          2.927         -4.928          57.67         -6.345          146.0          107.8          41.29
    0.0339              -15.73          5.051          51.11          66.22          2.927         -4.931          57.62         -6.336          146.0          107.8           41.3
   0.03814              -15.73          5.058          51.11          66.22          2.927         -4.933          57.56         -6.327          145.9          107.8          41.31
   0.04238              -15.73          5.066          51.11          66.21          2.927         -4.937           57.5         -6.318          145.8          107.8          41.33
   0.04662              -15.73          5.074           51.1           66.2          2.927          -4.94          57.44         -6.307          145.7          107.8          41.34
   0.05086              -15.74          5.083           51.1          66.19          2.927         -4.943          57.36         -6.296          145.7          107.8          41.36
   0.05509              -15.74          5.093           51.1          66.18          2.928         -4.947          57.29         -6.284          145.6          107.7          41.37
   0.05933              -15.74          5.104           51.1          66.17          2.928         -4.951           57.2         -6.271          145.4          107.7          41.39
   0.06357              -15.74          5.115          51.09          66.16          2.928         -4.956          57.11         -6.257          145.3          107.7          41.41
   0.06781              -15.74          5.127          51.09          66.14          2.928         -4.961          57.02         -6.241          145.2          107.7          41.43
   0.07205              -15.74          5.141          51.09          66.13          2.929         -4.966          56.91         -6.224          145.1          107.7          41.46
   0.07628              -15.74          5.155          51.08          66.12          2.929         -4.972          56.79         -6.206          144.9          107.7          41.48
   0.08052              -15.74          5.171          51.08           66.1          2.929         -4.978          56.67         -6.186          144.8          107.7          41.51
   0.08476              -15.74          5.189          51.07          66.08           2.93         -4.985          56.53         -6.164          144.6          107.7          41.54
